<svg width="16" height="15" viewBox="0 0 16 15" fill="none" xmlns="http://www.w3.org/2000/svg">
<path d="M4.66667 1.33329H15.5V2.99996H4.66667V1.33329ZM1.75 3.41663C1.41848 3.41663 1.10054 3.28493 0.866117 3.05051C0.631696 2.81609 0.5 2.49815 0.5 2.16663C0.5 1.83511 0.631696 1.51716 0.866117 1.28274C1.10054 1.04832 1.41848 0.916626 1.75 0.916626C2.08152 0.916626 2.39946 1.04832 2.63388 1.28274C2.8683 1.51716 3 1.83511 3 2.16663C3 2.49815 2.8683 2.81609 2.63388 3.05051C2.39946 3.28493 2.08152 3.41663 1.75 3.41663ZM1.75 9.24996C1.41848 9.24996 1.10054 9.11826 0.866117 8.88384C0.631696 8.64942 0.5 8.33148 0.5 7.99996C0.5 7.66844 0.631696 7.3505 0.866117 7.11608C1.10054 6.88166 1.41848 6.74996 1.75 6.74996C2.08152 6.74996 2.39946 6.88166 2.63388 7.11608C2.8683 7.3505 3 7.66844 3 7.99996C3 8.33148 2.8683 8.64942 2.63388 8.88384C2.39946 9.11826 2.08152 9.24996 1.75 9.24996ZM1.75 15C1.41848 15 1.10054 14.8683 0.866117 14.6338C0.631696 14.3994 0.5 14.0815 0.5 13.75C0.5 13.4184 0.631696 13.1005 0.866117 12.8661C1.10054 12.6317 1.41848 12.5 1.75 12.5C2.08152 12.5 2.39946 12.6317 2.63388 12.8661C2.8683 13.1005 3 13.4184 3 13.75C3 14.0815 2.8683 14.3994 2.63388 14.6338C2.39946 14.8683 2.08152 15 1.75 15ZM4.66667 7.16663H15.5V8.83329H4.66667V7.16663ZM4.66667 13H15.5V14.6666H4.66667V13Z" fill="#F54531"/>
</svg>
