<svg width="16" height="17" viewBox="0 0 16 17" fill="none" xmlns="http://www.w3.org/2000/svg">
<path d="M15.5 15.6666C15.5 15.8877 15.4122 16.0996 15.2559 16.2559C15.0996 16.4122 14.8877 16.5 14.6667 16.5H1.33333C1.11232 16.5 0.900358 16.4122 0.744078 16.2559C0.587798 16.0996 0.5 15.8877 0.5 15.6666V6.90831C0.499912 6.78133 0.528848 6.656 0.584597 6.5419C0.640346 6.4278 0.721433 6.32795 0.821667 6.24998L7.48833 1.06498C7.63462 0.951187 7.81467 0.889404 8 0.889404C8.18533 0.889404 8.36538 0.951187 8.51167 1.06498L15.1783 6.24998C15.2786 6.32795 15.3597 6.4278 15.4154 6.5419C15.4712 6.656 15.5001 6.78133 15.5 6.90831V15.6666ZM13.8333 14.8333V7.31498L8 2.77832L2.16667 7.31498V14.8333H13.8333Z" fill="#F54531"/>
</svg>
