<svg width="16" height="19" viewBox="0 0 16 19" fill="none" xmlns="http://www.w3.org/2000/svg">
<path d="M2.16667 14H13.8333V8.19251C13.8333 4.95667 11.2217 2.33334 8 2.33334C4.77833 2.33334 2.16667 4.95667 2.16667 8.19251V14ZM8 0.666672C12.1417 0.666672 15.5 4.03584 15.5 8.19251V15.6667H0.5V8.19251C0.5 4.03584 3.85833 0.666672 8 0.666672ZM5.91667 16.5H10.0833C10.0833 17.0525 9.86384 17.5824 9.47314 17.9731C9.08244 18.3638 8.55253 18.5833 8 18.5833C7.44747 18.5833 6.91756 18.3638 6.52686 17.9731C6.13616 17.5824 5.91667 17.0525 5.91667 16.5Z" fill="black"/>
</svg>
