<svg width="14" height="19" viewBox="0 0 14 19" fill="none" xmlns="http://www.w3.org/2000/svg">
<path d="M0.333374 18.3334C0.333374 16.5653 1.03575 14.8696 2.286 13.6193C3.53624 12.3691 5.23193 11.6667 7.00004 11.6667C8.76815 11.6667 10.4638 12.3691 11.7141 13.6193C12.9643 14.8696 13.6667 16.5653 13.6667 18.3334H12C12 17.0073 11.4733 15.7355 10.5356 14.7978C9.59789 13.8602 8.32612 13.3334 7.00004 13.3334C5.67396 13.3334 4.40219 13.8602 3.46451 14.7978C2.52682 15.7355 2.00004 17.0073 2.00004 18.3334H0.333374ZM7.00004 10.8334C4.23754 10.8334 2.00004 8.59587 2.00004 5.83337C2.00004 3.07087 4.23754 0.833374 7.00004 0.833374C9.76254 0.833374 12 3.07087 12 5.83337C12 8.59587 9.76254 10.8334 7.00004 10.8334ZM7.00004 9.16671C8.84171 9.16671 10.3334 7.67504 10.3334 5.83337C10.3334 3.99171 8.84171 2.50004 7.00004 2.50004C5.15837 2.50004 3.66671 3.99171 3.66671 5.83337C3.66671 7.67504 5.15837 9.16671 7.00004 9.16671Z" fill="black"/>
</svg>
