<svg width="10" height="10" viewBox="0 0 18 18" fill="none" xmlns="http://www.w3.org/2000/svg">
<path d="M8.16663 0.666626C12.3066 0.666626 15.6666 4.02663 15.6666 8.16663C15.6666 12.3066 12.3066 15.6666 8.16663 15.6666C4.02663 15.6666 0.666626 12.3066 0.666626 8.16663C0.666626 4.02663 4.02663 0.666626 8.16663 0.666626ZM8.16663 14C11.3891 14 14 11.3891 14 8.16663C14 4.94329 11.3891 2.33329 8.16663 2.33329C4.94329 2.33329 2.33329 4.94329 2.33329 8.16663C2.33329 11.3891 4.94329 14 8.16663 14ZM15.2375 14.0591L17.595 16.4158L16.4158 17.595L14.0591 15.2375L15.2375 14.0591V14.0591Z" fill="black"/>
</svg>
