<svg width="16" height="18" viewBox="0 0 16 18" fill="none" xmlns="http://www.w3.org/2000/svg">
<path d="M3.41667 0.666626H12.5833C12.7127 0.666626 12.8403 0.696747 12.956 0.754603C13.0717 0.81246 13.1724 0.896463 13.25 0.999959L15.5 3.99996V16.5C15.5 16.721 15.4122 16.9329 15.2559 17.0892C15.0996 17.2455 14.8877 17.3333 14.6667 17.3333H1.33333C1.11232 17.3333 0.900358 17.2455 0.744078 17.0892C0.587797 16.9329 0.5 16.721 0.5 16.5V3.99996L2.75 0.999959C2.82762 0.896463 2.92828 0.81246 3.04399 0.754603C3.1597 0.696747 3.2873 0.666626 3.41667 0.666626ZM13.8333 5.66663H2.16667V15.6666H13.8333V5.66663ZM13.4167 3.99996L12.1667 2.33329H3.83333L2.58333 3.99996H13.4167ZM5.5 7.33329V8.99996C5.5 9.663 5.76339 10.2989 6.23223 10.7677C6.70107 11.2366 7.33696 11.5 8 11.5C8.66304 11.5 9.29893 11.2366 9.76777 10.7677C10.2366 10.2989 10.5 9.663 10.5 8.99996V7.33329H12.1667V8.99996C12.1667 10.105 11.7277 11.1648 10.9463 11.9462C10.1649 12.7276 9.10507 13.1666 8 13.1666C6.89493 13.1666 5.83512 12.7276 5.05372 11.9462C4.27232 11.1648 3.83333 10.105 3.83333 8.99996V7.33329H5.5Z" fill="black"/>
</svg>
